<svg width="24" height="6" viewBox="0 0 24 6" fill="none" xmlns="http://www.w3.org/2000/svg">
<path d="M11.5281 3.84268C12.2355 3.84268 12.809 3.2692 12.809 2.56178C12.809 1.85436 12.2355 1.28088 11.5281 1.28088C10.8207 1.28088 10.2472 1.85436 10.2472 2.56178C10.2472 3.2692 10.8207 3.84268 11.5281 3.84268Z" stroke="#404040" stroke-width="2.5618" stroke-linecap="round" stroke-linejoin="round"/>
<path d="M20.4944 3.84268C21.2018 3.84268 21.7753 3.2692 21.7753 2.56178C21.7753 1.85436 21.2018 1.28088 20.4944 1.28088C19.7869 1.28088 19.2135 1.85436 19.2135 2.56178C19.2135 3.2692 19.7869 3.84268 20.4944 3.84268Z" stroke="#404040" stroke-width="2.5618" stroke-linecap="round" stroke-linejoin="round"/>
<path d="M2.56178 3.84268C3.2692 3.84268 3.84268 3.2692 3.84268 2.56178C3.84268 1.85436 3.2692 1.28088 2.56178 1.28088C1.85436 1.28088 1.28088 1.85436 1.28088 2.56178C1.28088 3.2692 1.85436 3.84268 2.56178 3.84268Z" stroke="#404040" stroke-width="2.5618" stroke-linecap="round" stroke-linejoin="round"/>
</svg>
