<svg width="32" height="29" viewBox="0 0 32 29" fill="none" xmlns="http://www.w3.org/2000/svg">
<path d="M15.9633 10.1619V15.9573M15.9633 21.7526H15.9778M30.0606 23.2015L18.4698 2.91771C18.2171 2.47176 17.8506 2.10083 17.4077 1.84276C16.9648 1.5847 16.4614 1.44873 15.9488 1.44873C15.4363 1.44873 14.9329 1.5847 14.49 1.84276C14.0471 2.10083 13.6806 2.47176 13.4279 2.91771L1.83714 23.2015C1.58168 23.6439 1.44773 24.146 1.44886 24.6569C1.44999 25.1677 1.58616 25.6692 1.84358 26.1105C2.10099 26.5518 2.47049 26.9172 2.91463 27.1696C3.35877 27.4221 3.86176 27.5526 4.37261 27.548H27.5541C28.0625 27.5475 28.5618 27.4132 29.0019 27.1587C29.442 26.9041 29.8073 26.5383 30.0613 26.0979C30.3153 25.6575 30.4489 25.158 30.4488 24.6496C30.4486 24.1412 30.3148 23.6418 30.0606 23.2015Z" stroke="black" stroke-width="2.89768" stroke-linecap="round" stroke-linejoin="round"/>
</svg>
