<svg width="26" height="32" viewBox="0 0 26 32" fill="none" xmlns="http://www.w3.org/2000/svg">
<path d="M15.5832 1.41651H4.24984C3.49839 1.41651 2.77772 1.71502 2.24637 2.24637C1.71501 2.77773 1.4165 3.49839 1.4165 4.24984V26.9165C1.4165 27.668 1.71501 28.3886 2.24637 28.92C2.77772 29.4513 3.49839 29.7498 4.24984 29.7498H21.2498C22.0013 29.7498 22.722 29.4513 23.2533 28.92C23.7847 28.3886 24.0832 27.668 24.0832 26.9165V9.91651M15.5832 1.41651C16.0316 1.41578 16.4758 1.50378 16.8901 1.67543C17.3044 1.84708 17.6806 2.099 17.9972 2.41668L23.0802 7.49968C23.3987 7.81631 23.6513 8.19291 23.8235 8.60774C23.9956 9.02256 24.0839 9.46738 24.0832 9.91651M15.5832 1.41651V8.49984C15.5832 8.87556 15.7324 9.2359 15.9981 9.50158C16.2638 9.76725 16.6241 9.91651 16.9998 9.91651L24.0832 9.91651" stroke="black" stroke-width="2.83333" stroke-linecap="round" stroke-linejoin="round"/>
</svg>
