<svg width="40" height="40" viewBox="0 0 40 40" fill="none" xmlns="http://www.w3.org/2000/svg">
<path d="M17.9998 16.6858L10.7998 4.2118M17.9998 22.9138L10.7998 35.3878M19.7998 37.7998V34.1998M19.7998 34.1998C27.7527 34.1998 34.1998 27.7527 34.1998 19.7998C34.1998 11.8469 27.7527 5.3998 19.7998 5.3998M19.7998 34.1998C11.8469 34.1998 5.3998 27.7527 5.3998 19.7998M19.7998 1.7998V5.3998M19.7998 5.3998C11.8469 5.3998 5.3998 11.8469 5.3998 19.7998M23.3998 19.7998H37.7998M23.3998 19.7998C23.3998 21.788 21.788 23.3998 19.7998 23.3998C17.8116 23.3998 16.1998 21.788 16.1998 19.7998C16.1998 17.8116 17.8116 16.1998 19.7998 16.1998C21.788 16.1998 23.3998 17.8116 23.3998 19.7998ZM28.7998 35.3878L26.9998 32.2738M28.7998 4.2118L26.9998 7.3258M1.7998 19.7998H5.3998M35.3878 28.7998L32.2738 26.9998M35.3878 10.7998L32.2738 12.5998M4.2118 28.7998L7.3258 26.9998M4.2118 10.7998L7.3258 12.5998" stroke="#404040" stroke-width="3.6" stroke-linecap="round" stroke-linejoin="round"/>
</svg>
