<svg width="92" height="92" viewBox="0 0 92 92" fill="none" xmlns="http://www.w3.org/2000/svg">
<circle cx="46" cy="46" r="45.3235" fill="#9ECCCA" stroke="#607D7C" stroke-width="1.35294"/>
<path d="M35.7909 33.098C35.7561 32.3205 35.8772 31.5439 36.147 30.8139C36.4169 30.0838 36.8299 29.4151 37.3619 28.8471C37.894 28.279 38.5342 27.8231 39.245 27.5061C39.9558 27.1891 40.7229 27.0175 41.501 27.0013C42.2791 26.985 43.0526 27.1246 43.776 27.4117C44.4994 27.6988 45.1581 28.1276 45.7133 28.673C46.2686 29.2184 46.7091 29.8693 47.0091 30.5875C47.3091 31.3056 47.4625 32.0765 47.4602 32.8548V58.151M35.7909 33.098C34.6471 33.3921 33.5852 33.9426 32.6857 34.7078C31.7862 35.4731 31.0726 36.433 30.599 37.5148C30.1254 38.5967 29.9042 39.7721 29.9521 40.9521C30 42.1321 30.3158 43.2858 30.8756 44.3256M35.7909 33.098C35.8293 34.0393 36.095 34.9573 36.5653 35.7736M30.8756 44.3256C29.8914 45.1252 29.1174 46.1532 28.621 47.3202C28.1246 48.4871 27.9209 49.7577 28.0276 51.0213C28.1342 52.2849 28.548 53.5034 29.2329 54.5706C29.9178 55.6379 30.8532 56.5216 31.9575 57.145M30.8756 44.3256C31.2316 44.0357 31.6125 43.7798 32.0139 43.557M31.9575 57.145C31.8211 58.2001 31.9025 59.272 32.1966 60.2944C32.4907 61.3168 32.9913 62.2681 33.6675 63.0895C34.3437 63.9109 35.181 64.5849 36.1279 65.07C37.0748 65.5551 38.1111 65.8409 39.1727 65.9098C40.2344 65.9787 41.2989 65.8292 42.3005 65.4705C43.3021 65.1119 44.2196 64.5517 44.9963 63.8246C45.7729 63.0975 46.3922 62.2189 46.816 61.2431C47.2398 60.2672 47.459 59.2149 47.4602 58.151M31.9575 57.145C33.1255 57.8038 34.444 58.1516 35.785 58.151M47.4602 58.151H59.1353C60.1675 58.151 61.1574 58.561 61.8872 59.2908C62.617 60.0207 63.0271 61.0105 63.0271 62.0427V63.9886M41.6226 48.4217C43.2563 47.847 44.6828 46.8008 45.7219 45.4153C46.761 44.0299 47.3659 42.3675 47.4602 40.6382M47.4602 48.4217H55.2436M47.4602 38.6924H63.0271M55.2436 38.6924V32.8548C55.2436 31.8226 55.6536 30.8328 56.3835 30.1029C57.1133 29.3731 58.1032 28.9631 59.1353 28.9631M56.2166 48.4217C56.2166 48.959 55.781 49.3946 55.2436 49.3946C54.7063 49.3946 54.2707 48.959 54.2707 48.4217C54.2707 47.8843 54.7063 47.4487 55.2436 47.4487C55.781 47.4487 56.2166 47.8843 56.2166 48.4217ZM60.1083 28.9631C60.1083 29.5004 59.6727 29.936 59.1353 29.936C58.598 29.936 58.1624 29.5004 58.1624 28.9631C58.1624 28.4257 58.598 27.9901 59.1353 27.9901C59.6727 27.9901 60.1083 28.4257 60.1083 28.9631ZM64 63.9886C64 64.5259 63.5644 64.9615 63.0271 64.9615C62.4897 64.9615 62.0541 64.5259 62.0541 63.9886C62.0541 63.4512 62.4897 63.0156 63.0271 63.0156C63.5644 63.0156 64 63.4512 64 63.9886ZM64 38.6924C64 39.2297 63.5644 39.6653 63.0271 39.6653C62.4897 39.6653 62.0541 39.2297 62.0541 38.6924C62.0541 38.155 62.4897 37.7194 63.0271 37.7194C63.5644 37.7194 64 38.155 64 38.6924Z" stroke="#333333" stroke-width="3.89172" stroke-linecap="round" stroke-linejoin="round"/>
</svg>
