<svg width="18" height="15" viewBox="0 0 18 15" fill="none" xmlns="http://www.w3.org/2000/svg">
<path d="M17.0625 7.3125H0.8125M17.0625 7.3125V12.1875C17.0625 12.6185 16.8913 13.0318 16.5865 13.3365C16.2818 13.6413 15.8685 13.8125 15.4375 13.8125H2.4375C2.00652 13.8125 1.5932 13.6413 1.28845 13.3365C0.983705 13.0318 0.8125 12.6185 0.8125 12.1875V7.3125M17.0625 7.3125L14.2594 1.71438C14.1248 1.44364 13.9175 1.2158 13.6605 1.05648C13.4036 0.897153 13.1073 0.81266 12.805 0.8125H5.07C4.76768 0.81266 4.4714 0.897153 4.21447 1.05648C3.95755 1.2158 3.75016 1.44364 3.61562 1.71438L0.8125 7.3125M4.0625 10.5625H4.07063M7.3125 10.5625H7.32063" stroke="#404040" stroke-width="1.625" stroke-linecap="round" stroke-linejoin="round"/>
</svg>
