<svg width="20" height="28" viewBox="0 0 20 28" fill="none" xmlns="http://www.w3.org/2000/svg">
<path d="M10 22.5V26.25M10 22.5C12.3206 22.5 14.5462 21.5781 16.1872 19.9372C17.8281 18.2962 18.75 16.0706 18.75 13.75V11.25M10 22.5C7.67936 22.5 5.45376 21.5781 3.81282 19.9372C2.17187 18.2962 1.25 16.0706 1.25 13.75V11.25M10 1.25C12.0711 1.25 13.75 2.92893 13.75 5V13.75C13.75 15.8211 12.0711 17.5 10 17.5C7.92893 17.5 6.25 15.8211 6.25 13.75V5C6.25 2.92893 7.92893 1.25 10 1.25Z" stroke="black" stroke-width="2.5" stroke-linecap="round" stroke-linejoin="round"/>
</svg>
