<svg width="51" height="51" viewBox="0 0 51 51" fill="none" xmlns="http://www.w3.org/2000/svg">
<circle cx="25.2549" cy="25.2549" r="24.8835" fill="#9ECCCA" stroke="#607D7C" stroke-width="0.742791"/>
<path d="M19.6499 18.1714C19.6308 17.7446 19.6973 17.3182 19.8454 16.9174C19.9936 16.5166 20.2204 16.1495 20.5124 15.8376C20.8045 15.5257 21.156 15.2754 21.5463 15.1014C21.9365 14.9274 22.3577 14.8331 22.7849 14.8242C23.2121 14.8153 23.6367 14.8919 24.0339 15.0495C24.4311 15.2072 24.7927 15.4426 25.0975 15.742C25.4024 16.0415 25.6442 16.3988 25.8089 16.7931C25.9736 17.1874 26.0578 17.6106 26.0566 18.0379V31.926M19.6499 18.1714C19.0219 18.3329 18.439 18.6351 17.9451 19.0553C17.4513 19.4754 17.0595 20.0024 16.7995 20.5964C16.5394 21.1903 16.418 21.8357 16.4443 22.4835C16.4706 23.1314 16.644 23.7647 16.9513 24.3356M19.6499 18.1714C19.671 18.6882 19.8169 19.1922 20.0751 19.6404M16.9513 24.3356C16.4109 24.7746 15.986 25.339 15.7135 25.9797C15.441 26.6204 15.3291 27.3179 15.3877 28.0117C15.4462 28.7054 15.6734 29.3744 16.0495 29.9603C16.4255 30.5463 16.939 31.0315 17.5453 31.3737M16.9513 24.3356C17.1468 24.1765 17.3559 24.036 17.5763 23.9136M17.5453 31.3737C17.4704 31.953 17.5151 32.5415 17.6766 33.1028C17.8381 33.6641 18.1129 34.1864 18.4841 34.6374C18.8554 35.0883 19.3151 35.4584 19.8349 35.7247C20.3548 35.991 20.9237 36.1479 21.5066 36.1857C22.0895 36.2236 22.6739 36.1415 23.2238 35.9446C23.7737 35.7477 24.2774 35.4402 24.7038 35.041C25.1302 34.6418 25.4703 34.1594 25.7029 33.6236C25.9356 33.0879 26.056 32.5101 26.0566 31.926M17.5453 31.3737C18.1866 31.7354 18.9104 31.9264 19.6467 31.926M26.0566 31.926H32.4665C33.0331 31.926 33.5766 32.1511 33.9773 32.5518C34.378 32.9525 34.6031 33.496 34.6031 34.0626V35.131M22.8516 26.5844C23.7485 26.2689 24.5318 25.6945 25.1022 24.9339C25.6727 24.1733 26.0048 23.2605 26.0566 22.3112M26.0566 26.5844H30.3298M26.0566 21.2429H34.6031M30.3298 21.2429V18.0379C30.3298 17.4712 30.555 16.9278 30.9556 16.5271C31.3563 16.1264 31.8998 15.9013 32.4665 15.9013M30.864 26.5844C30.864 26.8794 30.6249 27.1186 30.3298 27.1186C30.0348 27.1186 29.7957 26.8794 29.7957 26.5844C29.7957 26.2894 30.0348 26.0503 30.3298 26.0503C30.6249 26.0503 30.864 26.2894 30.864 26.5844ZM33.0006 15.9013C33.0006 16.1963 32.7615 16.4354 32.4665 16.4354C32.1715 16.4354 31.9323 16.1963 31.9323 15.9013C31.9323 15.6063 32.1715 15.3671 32.4665 15.3671C32.7615 15.3671 33.0006 15.6063 33.0006 15.9013ZM35.1373 35.131C35.1373 35.426 34.8981 35.6651 34.6031 35.6651C34.3081 35.6651 34.069 35.426 34.069 35.131C34.069 34.836 34.3081 34.5968 34.6031 34.5968C34.8981 34.5968 35.1373 34.836 35.1373 35.131ZM35.1373 21.2429C35.1373 21.5379 34.8981 21.777 34.6031 21.777C34.3081 21.777 34.069 21.5379 34.069 21.2429C34.069 20.9478 34.3081 20.7087 34.6031 20.7087C34.8981 20.7087 35.1373 20.9478 35.1373 21.2429Z" stroke="#333333" stroke-width="2.13663" stroke-linecap="round" stroke-linejoin="round"/>
</svg>
