<svg width="19" height="17" viewBox="0 0 19 17" fill="none" xmlns="http://www.w3.org/2000/svg">
<path d="M9.34878 9.34871V16.1494M9.34878 9.34871L5.94842 12.7491M9.34878 9.34871L12.7491 12.7491M2.54807 10.963C1.91649 10.3177 1.44004 9.53719 1.15481 8.68049C0.869574 7.82379 0.783039 6.91342 0.901757 6.01832C1.02048 5.12323 1.34133 4.26689 1.84003 3.51416C2.33872 2.76144 3.00218 2.13207 3.78013 1.67374C4.55809 1.2154 5.43015 0.940112 6.33026 0.868725C7.23036 0.797339 8.13491 0.931725 8.97539 1.26171C9.81587 1.59169 10.5702 2.10861 11.1813 2.77331C11.7925 3.43802 12.2443 4.23308 12.5026 5.09827H14.0243C14.845 5.09818 15.6441 5.36207 16.3033 5.85098C16.9626 6.33988 17.4472 7.02786 17.6854 7.81329C17.9236 8.59872 17.9029 9.43996 17.6264 10.2127C17.3498 10.9855 16.832 11.6488 16.1495 12.1047" stroke="#404040" stroke-width="1.70018" stroke-linecap="round" stroke-linejoin="round"/>
</svg>
