<svg width="33" height="33" viewBox="0 0 33 33" fill="none" xmlns="http://www.w3.org/2000/svg">
<path d="M15.2661 3.04761H4.57984C3.77007 3.04761 2.99347 3.36928 2.42088 3.94187C1.84829 4.51447 1.52661 5.29107 1.52661 6.10083V27.4734C1.52661 28.2832 1.84829 29.0598 2.42088 29.6324C2.99347 30.2049 3.77007 30.5266 4.57984 30.5266H25.9524C26.7622 30.5266 27.5388 30.2049 28.1114 29.6324C28.684 29.0598 29.0056 28.2832 29.0056 27.4734V16.7871M24.9983 2.47513C25.6056 1.8678 26.4293 1.52661 27.2882 1.52661C28.1471 1.52661 28.9708 1.8678 29.5781 2.47513C30.1854 3.08245 30.5266 3.90616 30.5266 4.76504C30.5266 5.62393 30.1854 6.44764 29.5781 7.05496L15.8188 20.8158C15.4563 21.178 15.0084 21.4432 14.5166 21.5868L10.1306 22.8691C9.99924 22.9075 9.85999 22.9098 9.72743 22.8758C9.59488 22.8418 9.47389 22.7729 9.37713 22.6761C9.28038 22.5793 9.21141 22.4584 9.17745 22.3258C9.14349 22.1932 9.14578 22.054 9.1841 21.9226L10.4665 17.5367C10.6108 17.0452 10.8764 16.5979 11.2389 16.236L24.9983 2.47513Z" stroke="black" stroke-width="3.05322" stroke-linecap="round" stroke-linejoin="round"/>
</svg>
