<svg width="23" height="26" viewBox="0 0 23 26" fill="none" xmlns="http://www.w3.org/2000/svg">
<path d="M9.1999 11.4999V18.3999M13.7999 11.4999V18.3999M19.5499 5.7499V21.8499C19.5499 22.4599 19.3076 23.0449 18.8762 23.4762C18.4449 23.9076 17.8599 24.1499 17.2499 24.1499H5.7499C5.1399 24.1499 4.55489 23.9076 4.12356 23.4762C3.69222 23.0449 3.4499 22.4599 3.4499 21.8499V5.7499M1.1499 5.7499H21.8499M6.8999 5.7499V3.4499C6.8999 2.8399 7.14222 2.25489 7.57356 1.82356C8.00489 1.39222 8.58991 1.1499 9.1999 1.1499H13.7999C14.4099 1.1499 14.9949 1.39222 15.4262 1.82356C15.8576 2.25489 16.0999 2.8399 16.0999 3.4499V5.7499" stroke="#404040" stroke-width="2.3" stroke-linecap="round" stroke-linejoin="round"/>
</svg>
